HIERARCHY
ROOT ui
{
	 OFFSET 0 0 0
	 CHANNELS 3 XPosition YPosition Z Position
	 EndSite
	 {
	 OFFSET 0 -1 0
	 }
}
ROOT li
{
	 OFFSET 0 0 0
	 CHANNELS 3 XPosition YPosition Z Position
	 EndSite
	 {
	 OFFSET 0 -1 0
	 }
}
ROOT ul
{
	 OFFSET 0 0 0
	 CHANNELS 3 XPosition YPosition Z Position
	 EndSite
	 {
	 OFFSET 0 -1 0
	 }
}
ROOT ll
{
	 OFFSET 0 0 0
	 CHANNELS 3 XPosition YPosition Z Position
	 EndSite
	 {
	 OFFSET 0 -1 0
	 }
}
ROOT tt
{
	 OFFSET 0 0 0
	 CHANNELS 3 XPosition YPosition Z Position
	 EndSite
	 {
	 OFFSET 0 -1 0
	 }
}
ROOT tb
{
	 OFFSET 0 0 0
	 CHANNELS 3 XPosition YPosition Z Position
	 EndSite
	 {
	 OFFSET 0 -1 0
	 }
}
ROOT td
{
	 OFFSET 0 0 0
	 CHANNELS 3 XPosition YPosition Z Position
	 EndSite
	 {
	 OFFSET 0 -1 0
	 }
}
ROOT v
{
	 OFFSET 0 0 0
	 CHANNELS 3 XPosition YPosition Z Position
	 EndSite
	 {
	 OFFSET 0 -1 0
	 }
}
ROOT bn
{
	 OFFSET 0 0 0
	 CHANNELS 3 XPosition YPosition Z Position
	 EndSite
	 {
	 OFFSET 0 -1 0
	 }
}
MOTION
Frames: 19
Frame Time: 0.002
-0.02228487014770508	-5.539460182189942E-4	0		0.4200322265625	-2.3459541015625	0		-1.0030545654296874	-0.04887372589111328	0		-0.6993005981445313	-2.290330322265625	0		2.212548583984375	-0.09974679565429688	0		3.641293701171875	0.23034970092773438	0		4.81408154296875	-0.008037704467773438	0		5.9934326171875	0.5105570068359375	0		-0.17970013427734374	5.91921875	0		
0.007608106136322021	0.002053752899169922	0		0.43285983276367185	-2.35010302734375	0		-0.9872850341796875	-0.055082763671875	0		-0.7672427978515625	-2.2773662109375	0		2.207488037109375	-0.09362236785888672	0		3.683029052734375	0.22183891296386718	0		4.81803271484375	-0.0010049580335617066	0		6.00226513671875	0.5095361938476562	0		-0.16279934692382814	5.9280048828125	0		
0.007475251197814941	0.00207818603515625	0		0.4488167724609375	-2.346295166015625	0		-0.9663494873046875	-0.050366317749023434	0		-0.6974871826171875	-2.2883271484375	0		2.2043291015625	-0.09552262878417969	0		3.664103515625	0.23718215942382812	0		4.84191162109375	-2.419230043888092E-4	0		5.98826513671875	0.519845458984375	0		-0.14507945251464843	5.92377685546875	0		
0.004317136764526367	-8.56693983078003E-4	0		0.43782394409179687	-2.3401123046875	0		-1.0037398681640626	-0.06984297943115235	0		-0.776557861328125	-2.28721728515625	0		2.211171630859375	-0.09855980682373047	0		3.660718994140625	0.21831005859375	0		4.8376982421875	-0.007081552982330323	0		5.9881396484375	0.5199686889648437	0		-0.1803614501953125	5.91928466796875	0		
-0.022778385162353514	-4.5935100317001345E-4	0		0.4336983947753906	-2.3450263671875	0		-0.9708955078125	-0.074296630859375	0		-0.7026918334960938	-2.293236083984375	0		2.2378642578125	-0.11387179565429688	0		3.665519287109375	0.2113287048339844	0		4.83760009765625	-0.006973166942596435	0		5.98392138671875	0.5121539306640625	0		-0.17957901000976562	5.91828955078125	0		
0.004142076015472412	-8.123120069503785E-4	0		0.42447137451171874	-2.3588701171875	0		-1.0020235595703124	-0.07786212158203125	0		-0.770553466796875	-2.280284912109375	0		2.233720458984375	-0.11875253295898437	0		3.68527001953125	0.19914205932617188	0		4.84241162109375	-0.01493049430847168	0		5.98794580078125	0.5202300415039063	0		-0.19770793151855467	5.9225576171875	0		
0.007131679058074951	0.0021683259010314942	0		0.4377261657714844	-2.340021484375	0		-0.9591610107421875	-0.0844537353515625	0		-0.7614244384765625	-2.27040283203125	0		2.226547119140625	-0.1275901412963867	0		3.675409423828125	0.21337120056152345	0		4.8423603515625	-0.014816707611083984	0		5.99299462890625	0.52829541015625	0		-0.16379151916503906	5.92810498046875	0		
0.007109704971313476	0.0021918439865112305	0		0.44459646606445313	-2.35108544921875	0		-0.9672774047851562	-0.09133749389648438	0		-0.7563477783203125	-2.266463623046875	0		2.21126611328125	-0.1463145446777344	0		3.686009033203125	0.18631578063964843	0		4.8423388671875	-0.014700057983398438	0		5.9878525390625	0.5205042114257813	0		-0.14499862670898436	5.92286279296875	0		
0.004079730033874512	-7.416359782218933E-4	0		0.4675550231933594	-2.358369140625	0		-0.9753603515625	-0.0982206802368164	0		-0.7562919921875	-2.266453857421875	0		2.196019287109375	-0.16503736877441405	0		3.6949326171875	0.18028916931152345	0		4.84515673828125	-0.02862027931213379	0		5.9968525390625	0.5205222778320312	0		-0.1451038818359375	5.92288427734375	0		
0.004126026153564453	-7.156040072441102E-4	0		0.4406785583496094	-2.355961669921875	0		-1.0044886474609376	-0.11081292724609375	0		-0.7521318969726563	-2.26149853515625	0		2.2106259765625	-0.1971714630126953	0		3.673811767578125	0.16867970275878907	0		4.8562021484375	-0.028649341583251952	0		5.98788916015625	0.5207921142578125	0		-0.14517584228515626	5.92290771484375	0		
1.5336300432682037E-4	-0.004632753849029541	0		0.450696533203125	-2.3640625	0		-1.0084453735351562	-0.11375032806396485	0		-0.7869324340820313	-2.2560048828125	0		2.195410400390625	-0.2188912811279297	0		3.67371142578125	0.15578164672851563	0		4.85195458984375	-0.05246761703491211	0		5.9879609375	0.5209390258789063	0		-0.2123848876953125	5.91085595703125	0		
0.0073666939735412594	0.002299314022064209	0		0.43684829711914064	-2.36483203125	0		-1.00022998046875	-0.10685189056396484	0		-0.74698046875	-2.2715400390625	0		2.223130859375	-0.24820140075683594	0		3.70171337890625	0.14749867248535156	0		4.8500458984375	-0.05431531143188477	0		5.993177734375	0.5290165405273437	0		-0.16216839599609376	5.92619140625	0		
0.007518754005432129	0.0023308711051940917	0		0.46813909912109375	-2.358218505859375	0		-0.9762291259765625	-0.11816831970214844	0		-0.7804793090820312	-2.24905810546875	0		2.19494677734375	-0.27274029541015626	0		3.674810302734375	0.14397250366210937	0		4.8591298828125	-0.059313789367675784	0		5.98821044921875	0.5212326049804688	0		-0.17826608276367187	5.9164404296875	0		
0.004662023067474365	-5.93097984790802E-4	0		0.41926217651367187	-2.36550244140625	0		-0.9800972290039063	-0.12209683990478516	0		-0.7443251342773437	-2.254531494140625	0		2.204792236328125	-0.2977996826171875	0		3.672552978515625	0.11210599517822266	0		4.85521923828125	-0.06613310241699219	0		5.988384765625	0.5213788452148438	0		-0.144126953125	5.9210048828125	0		
8.199890255928039E-4	-0.004499889850616455	0		0.47444354248046877	-2.3712099609375	0		-1.0199200439453124	-0.1245283203125	0		-0.784068359375	-2.253958984375	0		2.179532958984375	-0.332376220703125	0		3.66950341796875	0.09325302886962891	0		4.8562275390625	-0.08101992034912109	0		5.984478515625	0.5135802612304687	0		-0.17907281494140626	5.91752001953125	0		
-0.02492781639099121	-0.003102144956588745	0		0.417766845703125	-2.367380126953125	0		-1.00781982421875	-0.1346670684814453	0		-0.7131284790039063	-2.278899658203125	0		2.186363525390625	-0.36238946533203126	0		3.67646337890625	0.07326457214355468	0		4.85134228515625	-0.08982474517822266	0		5.988814453125	0.5216702270507813	0		-0.16280363464355468	5.92733935546875	0		
0.008407146453857421	0.002493433952331543	0		0.45693499755859374	-2.37685791015625	0		-0.9956994018554688	-0.1447991180419922	0		-0.7758428955078125	-2.279002685546875	0		2.166053466796875	-0.4040289306640625	0		3.668568603515625	0.06248263168334961	0		4.8625986328125	-0.08984810638427734	0		5.98906201171875	0.5218157958984375	0		-0.2108861999511719	5.91004150390625	0		
0.005640419006347657	-4.106549918651581E-4	0		0.4483694763183594	-2.36767431640625	0		-0.9364696044921875	-0.14856503295898438	0		-0.7125258178710937	-2.2788203125	0		2.21887841796875	-0.4376611938476562	0		3.670486572265625	0.036569133758544925	0		4.85468359375	-0.10360772705078125	0		5.989328125	0.521963134765625	0		-0.17761129760742186	5.91664208984375	0		
0.005930678844451904	-3.472320139408112E-4	0		0.47158349609375	-2.375917236328125	0		-0.972173828125	-0.14802468872070312	0		-0.7542252807617188	-2.280194580078125	0		2.200672119140625	-0.4743161926269531	0		3.7036640625	0.028237497329711914	0		4.85267578125	-0.12544335174560547	0		5.99860986328125	0.5219922485351562	0		-0.14335708618164061	5.92023876953125	0		
